<svg xmlns="http://www.w3.org/2000/svg" viewBox="0 0 25 15" width="25" height="15">
	<style>
		tspan { white-space:pre }
		.shp0 { fill: #ffffff } 
	</style>
	<g id="Footer">
		<g id="Socials">
			<path id="G+ Icon" class="shp0" d="M7.61 15C3.41 15 0 11.64 0 7.5C0 3.36 3.41 0 7.61 0C9.6 0 11.4 0.75 12.75 1.97L10.51 4.13C9.73 3.48 8.72 3.09 7.61 3.09C5.14 3.09 3.13 5.06 3.13 7.5C3.13 9.94 5.14 11.91 7.61 11.91C9.53 11.91 11.16 10.73 11.81 9.07L7.52 9.07L7.52 5.93L11.81 5.93L15.04 5.93L15.06 5.93C15.17 6.44 15.23 6.96 15.23 7.5C15.23 11.64 11.82 15 7.61 15ZM24 8.07L21.35 8.07L21.35 10.68L19.42 10.68L19.42 8.07L16.77 8.07L16.77 6.17L19.42 6.17L19.42 3.56L21.35 3.56L21.35 6.17L24 6.17L24 8.07Z" />
		</g>
	</g>
</svg>