<svg xmlns="http://www.w3.org/2000/svg" viewBox="0 0 14 14" width="14" height="14">
	<style>
		tspan { white-space:pre }
		.shp0 { fill: #343e5c } 
	</style>
	<g id="Main Menu">
		<g id="Search">
			<path id="Search Icon" class="shp0" d="M13.61 13.61C13.11 14.11 12.3 14.11 11.8 13.61L9.16 10.97C7.09 12.22 4.36 11.97 2.57 10.18C0.47 8.08 0.47 4.67 2.57 2.57C4.67 0.46 8.08 0.46 10.19 2.57C11.97 4.36 12.23 7.08 10.97 9.15L13.61 11.8C14.11 12.3 14.11 13.11 13.61 13.61ZM8.73 4.02C7.43 2.72 5.32 2.72 4.02 4.02C2.72 5.32 2.72 7.43 4.02 8.73C5.32 10.03 7.43 10.03 8.73 8.73C10.04 7.43 10.04 5.32 8.73 4.02Z" />
		</g>
	</g>
</svg>