<svg xmlns="http://www.w3.org/2000/svg" viewBox="0 0 20 18" width="20" height="18">
	<style>
		tspan { white-space:pre }
		.shp0 { fill: #343e5c } 
	</style>
	<g id="Main Menu">
		<g id="Cart">
			<path id="Shopping Cart Icon" class="shp0" d="M19 5.05L18 8.04C17.63 8.88 17.1 10.03 16 10.03L6.36 10.03L6.48 11.03L19 11.03L18 13.02L5.35 13.02L4.71 13.09L3.52 3.06L2 3.06C1.45 3.06 1 2.62 1 2.07C1 1.52 1.35 1.01 1.9 1.01L5.29 0.99L5.55 3.14C5.67 3.1 5.81 3.06 6 3.06L18 3.06C19.1 3.06 19 3.95 19 5.05ZM7 14.01C8.1 14.01 9 14.91 9 16.01C9 17.11 8.1 18 7 18C5.9 18 5 17.11 5 16.01C5 14.91 5.9 14.01 7 14.01ZM15 14.01C16.1 14.01 17 14.91 17 16.01C17 17.11 16.1 18 15 18C13.9 18 13 17.11 13 16.01C13 14.91 13.9 14.01 15 14.01Z" />
		</g>
	</g>
</svg>