<svg xmlns="http://www.w3.org/2000/svg" viewBox="0 0 17 14" width="17" height="14">
	<style>
		tspan { white-space:pre }
		.shp0 { fill: #ffffff } 
	</style>
	<g id="Footer">
		<g id="Socials">
			<path id="Twitter Icon" class="shp0" d="M17 1.66C16.37 1.94 15.7 2.13 15 2.21C15.72 1.78 16.27 1.08 16.53 0.26C15.86 0.66 15.11 0.96 14.32 1.12C13.68 0.43 12.77 0 11.77 0C9.84 0 8.28 1.58 8.28 3.54C8.28 3.81 8.31 4.08 8.37 4.34C5.47 4.19 2.91 2.79 1.19 0.65C0.89 1.17 0.71 1.78 0.71 2.42C0.71 3.65 1.33 4.73 2.26 5.37C1.69 5.35 1.16 5.19 0.69 4.92C0.69 4.94 0.69 4.95 0.69 4.97C0.69 6.68 1.89 8.11 3.48 8.43C3.19 8.51 2.88 8.56 2.56 8.56C2.34 8.56 2.12 8.54 1.91 8.49C2.35 9.9 3.64 10.92 5.17 10.95C3.97 11.9 2.47 12.46 0.83 12.46C0.55 12.46 0.27 12.44 0 12.41C1.55 13.41 3.38 14 5.35 14C11.76 14 15.27 8.61 15.27 3.94C15.27 3.79 15.27 3.64 15.26 3.49C15.94 2.99 16.53 2.37 17 1.66L17 1.66Z" />
		</g>
	</g>
</svg>